<svg xmlns="http://www.w3.org/2000/svg" viewBox="0 0 64 64" width="64" height="64" role="img" aria-label="Alianza Indigo CENI">
  <defs>
    <linearGradient id="ai" x1="6" y1="42" x2="58" y2="22" gradientUnits="userSpaceOnUse">
      <stop offset="0" stop-color="#8B1FE6"/>
      <stop offset="0.52" stop-color="#3554E8"/>
      <stop offset="1" stop-color="#08B8D8"/>
    </linearGradient>
  </defs>
  <rect width="64" height="64" rx="14" fill="#FFFFFF"/>
  <path
    d="M13 32c0-7 4.4-11 10-11 5.2 0 8.4 4.2 11.8 11 3.4 6.8 6.6 11 11.2 11 5.6 0 10-4 10-11s-4.4-11-10-11c-5.2 0-8.4 4.2-11.8 11C30.8 38.8 27.6 43 23 43c-5.6 0-10-4-10-11Z"
    fill="none"
    stroke="url(#ai)"
    stroke-width="8"
    stroke-linecap="round"
    stroke-linejoin="round"
  />
  <circle cx="8.5" cy="31" r="2.4" fill="#8B1FE6"/>
  <circle cx="14" cy="21" r="3.2" fill="#7430E8"/>
  <circle cx="23" cy="14" r="4.3" fill="#4151E8"/>
  <circle cx="43.5" cy="32" r="4.6" fill="#087DE6"/>
</svg>
