<svg xmlns="http://www.w3.org/2000/svg" viewBox="0 0 1200 630" width="1200" height="630" role="img" aria-labelledby="ceni-og-title">
  <title id="ceni-og-title">CENI. No necesitas parecer para ser. Certificación de Entornos Neuroinclusivos</title>
  <rect width="1200" height="630" fill="#1B1F5A"/>
  <g stroke="#FFFFFF" stroke-opacity="0.05" stroke-width="2" fill="none">
    <line x1="880" y1="80" x2="990" y2="140"/>
    <line x1="990" y1="140" x2="1110" y2="95"/>
    <line x1="990" y1="140" x2="1050" y2="250"/>
    <line x1="1050" y1="250" x2="1160" y2="310"/>
    <line x1="740" y1="540" x2="860" y2="580"/>
    <line x1="860" y1="580" x2="960" y2="510"/>
    <line x1="960" y1="510" x2="1090" y2="560"/>
    <line x1="120" y1="520" x2="230" y2="570"/>
    <line x1="230" y1="570" x2="330" y2="530"/>
  </g>
  <g fill="#FFFFFF" fill-opacity="0.06">
    <circle cx="880" cy="80" r="10"/>
    <circle cx="990" cy="140" r="14"/>
    <circle cx="1110" cy="95" r="8"/>
    <circle cx="1050" cy="250" r="11"/>
    <circle cx="1160" cy="310" r="7"/>
    <circle cx="740" cy="540" r="9"/>
    <circle cx="860" cy="580" r="12"/>
    <circle cx="960" cy="510" r="8"/>
    <circle cx="1090" cy="560" r="10"/>
    <circle cx="120" cy="520" r="9"/>
    <circle cx="230" cy="570" r="12"/>
    <circle cx="330" cy="530" r="7"/>
  </g>
  <g transform="translate(95 145) scale(2.2)">
    <g stroke="#FFFFFF" stroke-width="3.5" stroke-linecap="round">
      <line x1="86.9" y1="33.1" x2="60" y2="22"/>
      <line x1="60" y1="22" x2="33.1" y2="33.1"/>
      <line x1="33.1" y1="33.1" x2="22" y2="60"/>
      <line x1="22" y1="60" x2="33.1" y2="86.9"/>
      <line x1="33.1" y1="86.9" x2="60" y2="98"/>
      <line x1="60" y1="98" x2="86.9" y2="86.9"/>
      <line x1="33.1" y1="33.1" x2="50" y2="54"/>
      <line x1="22" y1="60" x2="50" y2="54"/>
    </g>
    <g fill="#FFFFFF">
      <circle cx="60" cy="22" r="5.5"/>
      <circle cx="33.1" cy="33.1" r="6.5"/>
      <circle cx="22" cy="60" r="8"/>
      <circle cx="33.1" cy="86.9" r="5.5"/>
      <circle cx="60" cy="98" r="6.5"/>
    </g>
    <g fill="#C9A227">
      <circle cx="86.9" cy="33.1" r="7"/>
      <circle cx="86.9" cy="86.9" r="7"/>
      <circle cx="50" cy="54" r="4"/>
    </g>
  </g>
  <text x="410" y="268" font-family="Atkinson Hyperlegible, system-ui, sans-serif" font-weight="700" font-size="62" fill="#FFFFFF">«No necesitas</text>
  <text x="410" y="348" font-family="Atkinson Hyperlegible, system-ui, sans-serif" font-weight="700" font-size="62" fill="#FFFFFF">PARECER para SER.»</text>
  <text x="410" y="428" font-family="Atkinson Hyperlegible, system-ui, sans-serif" font-size="28" letter-spacing="0.5" fill="#C9A227">CENI — Certificación de Entornos Neuroinclusivos</text>
</svg>
