<svg xmlns="http://www.w3.org/2000/svg" viewBox="0 0 240 160" width="240" height="160" role="img" aria-labelledby="ceni-empty-expedientes-title" class="decorative-illustration" color="#1B1F5A">
  <title id="ceni-empty-expedientes-title">Ilustración decorativa: carpeta vacía con nodos suaves</title>
  <g stroke="currentColor" stroke-opacity="0.45" stroke-width="1.5" stroke-linecap="round">
    <line x1="100" y1="48" x2="128" y2="36"/>
    <line x1="128" y1="36" x2="156" y2="50"/>
  </g>
  <g>
    <circle cx="100" cy="48" r="5" fill="none" stroke="currentColor" stroke-width="2.5"/>
    <circle cx="128" cy="36" r="4.5" fill="var(--ceni-gold, #C9A227)"/>
    <circle cx="156" cy="50" r="3.5" fill="none" stroke="currentColor" stroke-width="2.5"/>
  </g>
  <path d="M78 66h30l10 10h44a6 6 0 0 1 6 6v36a6 6 0 0 1-6 6H78a6 6 0 0 1-6-6V72a6 6 0 0 1 6-6z" fill="#ECEDF5" stroke="currentColor" stroke-width="3" stroke-linejoin="round"/>
  <path d="M72 96h96v22a6 6 0 0 1-6 6H78a6 6 0 0 1-6-6z" fill="#FFFFFF" stroke="currentColor" stroke-width="3" stroke-linejoin="round"/>
</svg>
