<svg xmlns="http://www.w3.org/2000/svg" viewBox="0 0 320 280" width="320" height="280" role="img" aria-labelledby="ceni-logo-stacked-title" color="#1B1F5A">
  <title id="ceni-logo-stacked-title">CENI. Certificación de Entornos Neuroinclusivos</title>
  <g transform="translate(100 16)">
    <g stroke="currentColor" stroke-width="3.5" stroke-linecap="round">
      <line x1="86.9" y1="33.1" x2="60" y2="22"/>
      <line x1="60" y1="22" x2="33.1" y2="33.1"/>
      <line x1="33.1" y1="33.1" x2="22" y2="60"/>
      <line x1="22" y1="60" x2="33.1" y2="86.9"/>
      <line x1="33.1" y1="86.9" x2="60" y2="98"/>
      <line x1="60" y1="98" x2="86.9" y2="86.9"/>
      <line x1="33.1" y1="33.1" x2="50" y2="54"/>
      <line x1="22" y1="60" x2="50" y2="54"/>
    </g>
    <g fill="currentColor">
      <circle cx="60" cy="22" r="5.5"/>
      <circle cx="33.1" cy="33.1" r="6.5"/>
      <circle cx="22" cy="60" r="8"/>
      <circle cx="33.1" cy="86.9" r="5.5"/>
      <circle cx="60" cy="98" r="6.5"/>
    </g>
    <g fill="var(--ceni-gold, #C9A227)">
      <circle cx="86.9" cy="33.1" r="7"/>
      <circle cx="86.9" cy="86.9" r="7"/>
      <circle cx="50" cy="54" r="4"/>
    </g>
  </g>
  <text x="160" y="198" text-anchor="middle" font-family="Atkinson Hyperlegible, system-ui, sans-serif" font-weight="700" font-size="58" letter-spacing="5" fill="currentColor">CENI</text>
  <text x="160" y="232" text-anchor="middle" font-family="Atkinson Hyperlegible, system-ui, sans-serif" font-size="17" fill="#616161">Certificación de Entornos</text>
  <text x="160" y="256" text-anchor="middle" font-family="Atkinson Hyperlegible, system-ui, sans-serif" font-size="17" fill="#616161">Neuroinclusivos</text>
</svg>
